<svg width="363" height="448" viewBox="0 0 363 448" fill="none" xmlns="http://www.w3.org/2000/svg">
<g style="mix-blend-mode:hue">
<path d="M1.15625 21.1929C1.15625 10.1472 10.1106 1.19287 21.1562 1.19287H341.804C352.849 1.19287 361.804 10.1472 361.804 21.1929V421.671C361.804 435.478 350.611 446.671 336.804 446.671H26.1563C12.3491 446.671 1.15625 435.478 1.15625 421.671V21.1929Z" fill="#3EFF74"/>
<path d="M1.15625 21.1929C1.15625 10.1472 10.1106 1.19287 21.1562 1.19287H341.804C352.849 1.19287 361.804 10.1472 361.804 21.1929V421.671C361.804 435.478 350.611 446.671 336.804 446.671H26.1563C12.3491 446.671 1.15625 435.478 1.15625 421.671V21.1929Z" stroke="black"/>
</g>
</svg>
