<svg width="359" height="266" viewBox="0 0 359 266" fill="none" xmlns="http://www.w3.org/2000/svg">
<path d="M334.862 230.206C333.424 230.206 332.431 230.651 331.883 231.542C331.336 232.432 331.062 233.801 331.062 235.65H338.457V234.007C338.457 231.473 337.259 230.206 334.862 230.206ZM309.903 239.348C309.903 231.199 312.026 224.9 316.271 220.449C320.585 215.929 326.885 213.67 335.17 213.67C343.524 213.67 349.413 215.382 352.837 218.805C356.329 222.229 358.075 227.125 358.075 233.493C358.075 236.027 357.801 239.861 357.253 244.997H331.473C331.746 248.695 334.006 250.543 338.252 250.543C340.237 250.543 345.441 249.824 353.864 248.386L355.61 262.253C348.352 264.17 341.573 265.128 335.273 265.128C327.056 265.128 320.756 262.869 316.374 258.349C312.06 253.83 309.903 247.496 309.903 239.348Z" fill="#03014A"/>
<path d="M296.45 265.128C291.109 265.128 287.446 263.793 285.46 261.122H285.049C281.899 263.793 278.167 265.128 273.853 265.128C266.732 265.128 261.665 262.868 258.652 258.349C255.639 253.83 254.133 247.427 254.133 239.142C254.133 230.857 255.776 224.557 259.063 220.243C262.418 215.861 267.211 213.669 273.442 213.669C277.003 213.669 279.879 214.217 282.07 215.313V198.263H302.715V248.694C302.715 249.584 303.024 250.201 303.64 250.543C304.325 250.885 305.489 251.057 307.132 251.057L305.283 264.717C301.722 264.991 298.778 265.128 296.45 265.128ZM278.783 229.282C277.414 229.282 276.524 230.069 276.113 231.644C275.771 233.219 275.599 235.958 275.599 239.861C275.599 243.764 275.771 246.503 276.113 248.078C276.455 249.584 277.311 250.338 278.681 250.338C280.119 250.338 281.249 250.201 282.07 249.927V230.001C280.906 229.521 279.811 229.282 278.783 229.282Z" fill="#03014A"/>
<path d="M247.868 228.152L247.252 248.695C247.252 249.653 247.594 250.304 248.279 250.646C249.032 250.92 250.333 251.057 252.182 251.057L250.23 264.718C246.122 264.992 243.349 265.128 241.911 265.128C236.912 265.128 233.283 263.793 231.023 261.123H230.304C227.017 263.793 222.875 265.128 217.876 265.128C212.946 265.128 209.18 263.827 206.578 261.225C204.044 258.555 202.777 254.891 202.777 250.235C202.777 244.483 204.695 240.478 208.529 238.218C212.432 235.958 218.595 234.52 227.017 233.904V232.055C227.017 230.823 226.367 230.206 225.066 230.206C221.574 230.206 215.582 231.268 207.091 233.39L203.907 217.162C213.699 214.834 222.121 213.67 229.174 213.67C236.227 213.67 241.089 214.834 243.759 217.162C246.498 219.49 247.868 223.153 247.868 228.152ZM224.655 251.879C226.641 251.879 227.634 250.851 227.634 248.797V244.894C224.073 245.373 222.293 246.743 222.293 249.003C222.293 250.92 223.08 251.879 224.655 251.879Z" fill="#03014A"/>
<path d="M184.091 213.67C193.541 213.67 198.266 218.326 198.266 227.639V264.101H176.593V232.261C176.593 231.165 176.183 230.617 175.361 230.617C174.265 230.617 172.896 230.96 171.252 231.644V264.101H149.58V232.261C149.58 231.165 149.135 230.617 148.245 230.617C147.012 230.617 145.643 230.96 144.136 231.644V264.101H122.772V214.902H142.185L142.801 218.086C147.389 215.142 152.353 213.67 157.694 213.67C163.035 213.67 166.87 215.313 169.198 218.6C173.854 215.313 178.819 213.67 184.091 213.67Z" fill="#03014A"/>
<path d="M114.963 228.152L114.347 248.695C114.347 249.653 114.689 250.304 115.374 250.646C116.127 250.92 117.428 251.057 119.277 251.057L117.325 264.718C113.217 264.992 110.444 265.128 109.006 265.128C104.007 265.128 100.378 263.793 98.1183 261.123H97.3993C94.1125 263.793 89.9698 265.128 84.9711 265.128C80.0409 265.128 76.2748 263.827 73.6728 261.225C71.1392 258.555 69.8724 254.891 69.8724 250.235C69.8724 244.483 71.7897 240.478 75.6243 238.218C79.5274 235.958 85.6901 234.52 94.1125 233.904V232.055C94.1125 230.823 93.462 230.206 92.161 230.206C88.6688 230.206 82.6772 231.268 74.1863 233.39L71.0023 217.162C80.7942 214.834 89.2166 213.67 96.2695 213.67C103.322 213.67 108.184 214.834 110.855 217.162C113.594 219.49 114.963 223.153 114.963 228.152ZM91.7501 251.879C93.7359 251.879 94.7288 250.851 94.7288 248.797V244.894C91.1681 245.373 89.3877 246.743 89.3877 249.003C89.3877 250.92 90.1752 251.879 91.7501 251.879Z" fill="#03014A"/>
<path d="M64.2826 264.1H43.3293L30.3876 238.936H29.6686V264.1H10.1533V200.316H31.8256L43.9456 226.302H44.5619V200.316H64.2826V264.1Z" fill="#03014A"/>
<path d="M141.204 169.905C138.671 169.905 136.137 169.426 133.603 168.467V182.95H112.239V119.679H129.906L130.727 121.939C133.946 119.61 137.815 118.446 142.334 118.446C149.729 118.446 154.728 120.364 157.33 124.198C159.932 127.964 161.233 134.435 161.233 143.611C161.233 152.718 159.829 159.394 157.022 163.64C154.214 167.817 148.942 169.905 141.204 169.905ZM136.685 155.32C138.123 155.32 139.013 154.567 139.355 153.06C139.698 151.485 139.869 148.781 139.869 144.946C139.869 141.043 139.663 138.304 139.253 136.729C138.842 135.086 137.952 134.264 136.582 134.264C135.692 134.264 134.631 134.538 133.398 135.086V154.909C134.631 155.183 135.726 155.32 136.685 155.32Z" fill="#03014A"/>
<path d="M71.4569 169.905C61.7335 169.905 56.8718 165.249 56.8718 155.936V119.679H78.4414V151.93C78.4414 153.026 78.9207 153.574 79.8793 153.574C80.9065 153.574 82.2417 153.231 83.8851 152.546V119.679H105.352V168.672H84.8095V166.104H84.1932C80.2217 168.638 75.9763 169.905 71.4569 169.905Z" fill="#03014A"/>
<path d="M30.284 137.756C30.284 142.961 30.866 146.761 32.0301 149.158C33.1941 151.486 35.1457 152.65 37.8847 152.65C40.6236 152.65 45.1772 151.897 51.5454 150.39L54.8322 166.721C48.1216 168.844 41.6508 169.905 35.4196 169.905C25.9016 169.905 18.9514 167.201 14.569 161.791C10.2551 156.313 8.09814 148.199 8.09814 137.448C8.09814 126.629 10.3578 118.378 14.8771 112.695C19.3965 106.943 26.7575 104.067 36.9603 104.067C42.9176 104.067 48.8749 105.231 54.8322 107.559L51.4427 125.842C44.6637 123.856 40.0074 122.863 37.4738 122.863C35.0087 122.863 33.1941 124.062 32.0301 126.458C30.866 128.786 30.284 132.552 30.284 137.756Z" fill="#03014A"/>
<path d="M352.485 37.7063L351.869 58.2487C351.869 59.2074 352.211 59.8579 352.896 60.2002C353.649 60.4741 354.95 60.6111 356.799 60.6111L354.847 74.2718C350.739 74.5457 347.965 74.6827 346.528 74.6827C341.529 74.6827 337.9 73.3474 335.64 70.6769H334.921C331.634 73.3474 327.492 74.6827 322.493 74.6827C317.563 74.6827 313.797 73.3816 311.195 70.7796C308.661 68.1091 307.394 64.4457 307.394 59.7894C307.394 54.0375 309.311 50.0317 313.146 47.7721C317.049 45.5124 323.212 44.0744 331.634 43.4582V41.6093C331.634 40.3768 330.984 39.7605 329.683 39.7605C326.19 39.7605 320.199 40.8219 311.708 42.9446L308.524 26.7161C318.316 24.3879 326.738 23.2239 333.791 23.2239C340.844 23.2239 345.706 24.3879 348.376 26.7161C351.115 29.0442 352.485 32.7076 352.485 37.7063ZM329.272 61.4328C331.258 61.4328 332.25 60.4057 332.25 58.3514V54.4484C328.69 54.9277 326.909 56.2972 326.909 58.5568C326.909 60.4741 327.697 61.4328 329.272 61.4328Z" fill="#03014A"/>
<path d="M279.852 60.9189V7.81677H300.908V56.1942C300.908 58.043 302.174 58.9674 304.708 58.9674L303.167 74.6824H294.745C284.816 74.6824 279.852 70.0946 279.852 60.9189Z" fill="#03014A"/>
<path d="M271.839 37.7063L271.223 58.2487C271.223 59.2074 271.565 59.8579 272.25 60.2002C273.003 60.4741 274.304 60.6111 276.153 60.6111L274.202 74.2718C270.093 74.5457 267.32 74.6827 265.882 74.6827C260.883 74.6827 257.254 73.3474 254.994 70.6769H254.275C250.989 73.3474 246.846 74.6827 241.847 74.6827C236.917 74.6827 233.151 73.3816 230.549 70.7796C228.015 68.1091 226.749 64.4457 226.749 59.7894C226.749 54.0375 228.666 50.0317 232.5 47.7721C236.403 45.5124 242.566 44.0744 250.989 43.4582V41.6093C250.989 40.3768 250.338 39.7605 249.037 39.7605C245.545 39.7605 239.553 40.8219 231.062 42.9446L227.878 26.7161C237.67 24.3879 246.093 23.2239 253.146 23.2239C260.198 23.2239 265.06 24.3879 267.731 26.7161C270.47 29.0442 271.839 32.7076 271.839 37.7063ZM248.626 61.4328C250.612 61.4328 251.605 60.4057 251.605 58.3514V54.4484C248.044 54.9277 246.264 56.2972 246.264 58.5568C246.264 60.4741 247.051 61.4328 248.626 61.4328Z" fill="#03014A"/>
<path d="M220.585 37.7063L219.969 58.2487C219.969 59.2074 220.311 59.8579 220.996 60.2002C221.749 60.4741 223.05 60.6111 224.899 60.6111L222.948 74.2718C218.839 74.5457 216.066 74.6827 214.628 74.6827C209.629 74.6827 206 73.3474 203.741 70.6769H203.022C199.735 73.3474 195.592 74.6827 190.593 74.6827C185.663 74.6827 181.897 73.3816 179.295 70.7796C176.762 68.1091 175.495 64.4457 175.495 59.7894C175.495 54.0375 177.412 50.0317 181.247 47.7721C185.15 45.5124 191.312 44.0744 199.735 43.4582V41.6093C199.735 40.3768 199.084 39.7605 197.783 39.7605C194.291 39.7605 188.3 40.8219 179.809 42.9446L176.625 26.7161C186.416 24.3879 194.839 23.2239 201.892 23.2239C208.945 23.2239 213.806 24.3879 216.477 26.7161C219.216 29.0442 220.585 32.7076 220.585 37.7063ZM197.372 61.4328C199.358 61.4328 200.351 60.4057 200.351 58.3514V54.4484C196.79 54.9277 195.01 56.2972 195.01 58.5568C195.01 60.4741 195.798 61.4328 197.372 61.4328Z" fill="#03014A"/>
<path d="M125.43 30.3105C125.43 23.5315 127.484 18.2589 131.593 14.4928C135.701 10.7267 141.385 8.84363 148.643 8.84363C155.97 8.84363 163.502 9.52838 171.24 10.8979L168.877 28.9752C160.318 27.2633 154.703 26.4074 152.033 26.4074C149.362 26.4074 148.027 27.2291 148.027 28.8725C148.027 29.4888 148.232 29.9339 148.643 30.2078C149.054 30.4132 149.362 30.5844 149.568 30.7213C149.773 30.8583 150.15 31.0294 150.697 31.2349C151.314 31.4403 151.793 31.6457 152.135 31.8511C152.546 31.9881 153.779 32.5017 155.833 33.3918C157.956 34.2135 159.531 34.8983 160.558 35.4461C161.653 35.9254 163.126 36.7471 164.974 37.9112C170.315 41.4034 172.986 46.539 172.986 53.318C172.986 60.097 170.966 65.3695 166.926 69.1356C162.886 72.8333 157.066 74.6821 149.465 74.6821C141.933 74.6821 134.537 73.7577 127.279 71.9089L128.717 54.5505C137.893 56.8787 144.09 58.0427 147.308 58.0427C149.431 58.0427 150.492 57.2895 150.492 55.7831C150.492 55.0983 150.218 54.5505 149.67 54.1397C149.191 53.7288 148.438 53.2837 147.411 52.8044C146.452 52.3251 145.014 51.7088 143.097 50.9556C141.179 50.1339 139.57 49.4492 138.269 48.9014C136.968 48.2851 135.427 47.3607 133.647 46.1281C128.169 42.362 125.43 37.0895 125.43 30.3105Z" fill="#03014A"/>
<path d="M79.8865 39.7605C78.4486 39.7605 77.4557 40.2056 76.9079 41.0958C76.3601 41.986 76.0862 43.3554 76.0862 45.2043H83.4815V43.5609C83.4815 41.0273 82.2832 39.7605 79.8865 39.7605ZM54.9275 48.9019C54.9275 40.7534 57.0502 34.4537 61.2956 30.0029C65.6096 25.4835 71.9092 23.2239 80.1947 23.2239C88.5486 23.2239 94.4374 24.9357 97.8612 28.3595C101.353 31.7832 103.099 36.6792 103.099 43.0473C103.099 45.5809 102.826 49.4155 102.278 54.5511H76.497C76.7709 58.2487 79.0306 60.0975 83.276 60.0975C85.2618 60.0975 90.4659 59.3785 98.8883 57.9406L100.634 71.8067C93.3761 73.724 86.5971 74.6827 80.2974 74.6827C72.0804 74.6827 65.7807 72.423 61.3984 67.9037C57.0844 63.3843 54.9275 57.0504 54.9275 48.9019Z" fill="#03014A"/>
<path d="M50.8273 73.6554H10.1533V9.87122H52.2653L50.8273 26.8187H32.1337V34.5221H48.4649V49.3127H32.1337V58.0432H52.2653L50.8273 73.6554Z" fill="#03014A"/>
<path d="M327.459 223.009C326.021 223.009 325.028 223.454 324.481 224.344C323.933 225.234 323.659 226.604 323.659 228.453H331.054V226.809C331.054 224.276 329.856 223.009 327.459 223.009ZM302.5 232.15C302.5 224.002 304.623 217.702 308.868 213.251C313.182 208.732 319.482 206.472 327.767 206.472C336.121 206.472 342.01 208.184 345.434 211.608C348.926 215.032 350.672 219.928 350.672 226.296C350.672 228.829 350.398 232.664 349.85 237.8H324.07C324.344 241.497 326.603 243.346 330.849 243.346C332.834 243.346 338.039 242.627 346.461 241.189L348.207 255.055C340.949 256.973 334.17 257.931 327.87 257.931C319.653 257.931 313.353 255.672 308.971 251.152C304.657 246.633 302.5 240.299 302.5 232.15Z" fill="white"/>
<path d="M289.047 257.931C283.706 257.931 280.043 256.596 278.057 253.925H277.646C274.496 256.596 270.764 257.931 266.45 257.931C259.329 257.931 254.262 255.671 251.249 251.152C248.236 246.633 246.73 240.23 246.73 231.945C246.73 223.659 248.373 217.36 251.66 213.046C255.015 208.663 259.808 206.472 266.04 206.472C269.6 206.472 272.476 207.02 274.667 208.116V191.065H295.313V241.497C295.313 242.387 295.621 243.004 296.237 243.346C296.922 243.688 298.086 243.859 299.729 243.859L297.88 257.52C294.32 257.794 291.375 257.931 289.047 257.931ZM271.381 222.084C270.011 222.084 269.121 222.872 268.71 224.447C268.368 226.022 268.197 228.761 268.197 232.664C268.197 236.567 268.368 239.306 268.71 240.881C269.053 242.387 269.908 243.14 271.278 243.14C272.716 243.14 273.846 243.004 274.667 242.73V222.803C273.503 222.324 272.408 222.084 271.381 222.084Z" fill="white"/>
<path d="M240.465 220.955L239.849 241.497C239.849 242.456 240.191 243.106 240.876 243.449C241.629 243.723 242.93 243.86 244.779 243.86L242.827 257.52C238.719 257.794 235.946 257.931 234.508 257.931C229.509 257.931 225.88 256.596 223.62 253.925H222.901C219.614 256.596 215.472 257.931 210.473 257.931C205.543 257.931 201.777 256.63 199.175 254.028C196.641 251.358 195.374 247.694 195.374 243.038C195.374 237.286 197.292 233.28 201.126 231.021C205.029 228.761 211.192 227.323 219.614 226.707V224.858C219.614 223.625 218.964 223.009 217.663 223.009C214.171 223.009 208.179 224.07 199.688 226.193L196.504 209.965C206.296 207.636 214.719 206.472 221.771 206.472C228.824 206.472 233.686 207.636 236.357 209.965C239.096 212.293 240.465 215.956 240.465 220.955ZM217.252 244.681C219.238 244.681 220.231 243.654 220.231 241.6V237.697C216.67 238.176 214.89 239.546 214.89 241.805C214.89 243.723 215.677 244.681 217.252 244.681Z" fill="white"/>
<path d="M176.689 206.472C186.138 206.472 190.863 211.129 190.863 220.441V256.904H169.191V225.063C169.191 223.968 168.78 223.42 167.958 223.42C166.863 223.42 165.493 223.762 163.85 224.447V256.904H142.177V225.063C142.177 223.968 141.732 223.42 140.842 223.42C139.61 223.42 138.24 223.762 136.734 224.447V256.904H115.37V207.705H134.782L135.398 210.889C139.986 207.945 144.951 206.472 150.292 206.472C155.633 206.472 159.467 208.116 161.795 211.403C166.452 208.116 171.416 206.472 176.689 206.472Z" fill="white"/>
<path d="M107.56 220.955L106.944 241.497C106.944 242.456 107.286 243.106 107.971 243.449C108.724 243.723 110.025 243.86 111.874 243.86L109.922 257.52C105.814 257.794 103.041 257.931 101.603 257.931C96.6041 257.931 92.975 256.596 90.7153 253.925H89.9963C86.7095 256.596 82.5668 257.931 77.5682 257.931C72.638 257.931 68.8719 256.63 66.2698 254.028C63.7363 251.358 62.4695 247.694 62.4695 243.038C62.4695 237.286 64.3868 233.28 68.2214 231.021C72.1244 228.761 78.2871 227.323 86.7095 226.707V224.858C86.7095 223.625 86.059 223.009 84.758 223.009C81.2658 223.009 75.2743 224.07 66.7834 226.193L63.5993 209.965C73.3912 207.636 81.8136 206.472 88.8665 206.472C95.9194 206.472 100.781 207.636 103.452 209.965C106.191 212.293 107.56 215.956 107.56 220.955ZM84.3472 244.681C86.3329 244.681 87.3258 243.654 87.3258 241.6V237.697C83.7651 238.176 81.9848 239.546 81.9848 241.805C81.9848 243.723 82.7722 244.681 84.3472 244.681Z" fill="white"/>
<path d="M56.8798 256.903H35.9265L22.9848 231.739H22.2658V256.903H2.75049V193.119H24.4227L36.5428 219.105H37.1591V193.119H56.8798V256.903Z" fill="white"/>
<path d="M133.801 162.708C131.268 162.708 128.734 162.229 126.201 161.27V175.752H104.836V112.482H122.503L123.325 114.741C126.543 112.413 130.412 111.249 134.931 111.249C142.326 111.249 147.325 113.166 149.927 117.001C152.529 120.767 153.83 127.238 153.83 136.414C153.83 145.521 152.426 152.197 149.619 156.442C146.811 160.619 141.539 162.708 133.801 162.708ZM129.282 148.123C130.72 148.123 131.61 147.37 131.952 145.863C132.295 144.288 132.466 141.583 132.466 137.749C132.466 133.846 132.261 131.107 131.85 129.532C131.439 127.889 130.549 127.067 129.179 127.067C128.289 127.067 127.228 127.341 125.995 127.889V147.712C127.228 147.986 128.323 148.123 129.282 148.123Z" fill="white"/>
<path d="M64.0541 162.708C54.3307 162.708 49.469 158.051 49.469 148.739V112.481H71.0385V144.733C71.0385 145.829 71.5179 146.376 72.4765 146.376C73.5036 146.376 74.8389 146.034 76.4823 145.349V112.481H97.9491V161.475H77.4067V158.907H76.7904C72.8189 161.441 68.5734 162.708 64.0541 162.708Z" fill="white"/>
<path d="M22.8811 130.559C22.8811 135.763 23.4632 139.564 24.6272 141.96C25.7913 144.289 27.7428 145.453 30.4818 145.453C33.2208 145.453 37.7744 144.699 44.1425 143.193L47.4293 159.524C40.7188 161.647 34.2479 162.708 28.0167 162.708C18.4987 162.708 11.5486 160.003 7.16618 154.594C2.85227 149.116 0.695312 141.002 0.695312 130.251C0.695312 119.432 2.95498 111.181 7.47431 105.498C11.9936 99.7457 19.3547 96.8698 29.5574 96.8698C35.5147 96.8698 41.472 98.0338 47.4293 100.362L44.0398 118.645C37.2608 116.659 32.6045 115.666 30.071 115.666C27.6059 115.666 25.7913 116.864 24.6272 119.261C23.4632 121.589 22.8811 125.355 22.8811 130.559Z" fill="white"/>
<path d="M345.082 30.5091L344.466 51.0516C344.466 52.0102 344.808 52.6607 345.493 53.0031C346.246 53.277 347.547 53.4139 349.396 53.4139L347.444 67.0747C343.336 67.3486 340.563 67.4855 339.125 67.4855C334.126 67.4855 330.497 66.1503 328.237 63.4797H327.518C324.231 66.1503 320.089 67.4855 315.09 67.4855C310.16 67.4855 306.394 66.1845 303.792 63.5824C301.258 60.9119 299.991 57.2485 299.991 52.5923C299.991 46.8404 301.909 42.8346 305.743 40.5749C309.646 38.3153 315.809 36.8773 324.231 36.261V34.4122C324.231 33.1797 323.581 32.5634 322.28 32.5634C318.788 32.5634 312.796 33.6247 304.305 35.7475L301.121 19.5189C310.913 17.1908 319.335 16.0267 326.388 16.0267C333.441 16.0267 338.303 17.1908 340.973 19.5189C343.712 21.8471 345.082 25.5105 345.082 30.5091ZM321.869 54.2356C323.855 54.2356 324.848 53.2085 324.848 51.1543V47.2512C321.287 47.7305 319.507 49.1 319.507 51.3597C319.507 53.277 320.294 54.2356 321.869 54.2356Z" fill="white"/>
<path d="M272.449 53.7218V0.619629H293.505V48.997C293.505 50.8459 294.772 51.7703 297.305 51.7703L295.764 67.4852H287.342C277.413 67.4852 272.449 62.8974 272.449 53.7218Z" fill="white"/>
<path d="M264.436 30.5091L263.82 51.0516C263.82 52.0102 264.162 52.6607 264.847 53.0031C265.6 53.277 266.901 53.4139 268.75 53.4139L266.799 67.0747C262.69 67.3486 259.917 67.4855 258.479 67.4855C253.48 67.4855 249.851 66.1503 247.592 63.4797H246.873C243.586 66.1503 239.443 67.4855 234.444 67.4855C229.514 67.4855 225.748 66.1845 223.146 63.5824C220.612 60.9119 219.346 57.2485 219.346 52.5923C219.346 46.8404 221.263 42.8346 225.098 40.5749C229.001 38.3153 235.163 36.8773 243.586 36.261V34.4122C243.586 33.1797 242.935 32.5634 241.634 32.5634C238.142 32.5634 232.15 33.6247 223.66 35.7475L220.476 19.5189C230.267 17.1908 238.69 16.0267 245.743 16.0267C252.796 16.0267 257.657 17.1908 260.328 19.5189C263.067 21.8471 264.436 25.5105 264.436 30.5091ZM241.223 54.2356C243.209 54.2356 244.202 53.2085 244.202 51.1543V47.2512C240.641 47.7305 238.861 49.1 238.861 51.3597C238.861 53.277 239.648 54.2356 241.223 54.2356Z" fill="white"/>
<path d="M213.183 30.5091L212.566 51.0516C212.566 52.0102 212.909 52.6607 213.593 53.0031C214.347 53.277 215.648 53.4139 217.496 53.4139L215.545 67.0747C211.436 67.3486 208.663 67.4855 207.225 67.4855C202.227 67.4855 198.597 66.1503 196.338 63.4797H195.619C192.332 66.1503 188.189 67.4855 183.191 67.4855C178.26 67.4855 174.494 66.1845 171.892 63.5824C169.359 60.9119 168.092 57.2485 168.092 52.5923C168.092 46.8404 170.009 42.8346 173.844 40.5749C177.747 38.3153 183.91 36.8773 192.332 36.261V34.4122C192.332 33.1797 191.681 32.5634 190.38 32.5634C186.888 32.5634 180.897 33.6247 172.406 35.7475L169.222 19.5189C179.014 17.1908 187.436 16.0267 194.489 16.0267C201.542 16.0267 206.404 17.1908 209.074 19.5189C211.813 21.8471 213.183 25.5105 213.183 30.5091ZM189.97 54.2356C191.955 54.2356 192.948 53.2085 192.948 51.1543V47.2512C189.388 47.7305 187.607 49.1 187.607 51.3597C187.607 53.277 188.395 54.2356 189.97 54.2356Z" fill="white"/>
<path d="M118.027 23.1133C118.027 16.3343 120.082 11.0618 124.19 7.29565C128.299 3.52954 133.982 1.64648 141.24 1.64648C148.567 1.64648 156.099 2.33123 163.837 3.70073L161.475 21.7781C152.915 20.0662 147.3 19.2103 144.63 19.2103C141.959 19.2103 140.624 20.032 140.624 21.6753C140.624 22.2916 140.829 22.7367 141.24 23.0106C141.651 23.216 141.959 23.3872 142.165 23.5242C142.37 23.6611 142.747 23.8323 143.295 24.0377C143.911 24.2432 144.39 24.4486 144.732 24.654C145.143 24.791 146.376 25.3045 148.43 26.1947C150.553 27.0164 152.128 27.7011 153.155 28.2489C154.25 28.7282 155.723 29.5499 157.572 30.714C162.913 34.2062 165.583 39.3418 165.583 46.1208C165.583 52.8998 163.563 58.1724 159.523 61.9385C155.483 65.6361 149.663 67.485 142.062 67.485C134.53 67.485 127.134 66.5605 119.876 64.7117L121.314 47.3534C130.49 49.6815 136.687 50.8456 139.905 50.8456C142.028 50.8456 143.089 50.0924 143.089 48.5859C143.089 47.9012 142.815 47.3534 142.267 46.9425C141.788 46.5317 141.035 46.0866 140.008 45.6073C139.049 45.128 137.611 44.5117 135.694 43.7585C133.777 42.9368 132.167 42.252 130.866 41.7042C129.565 41.0879 128.025 40.1635 126.244 38.931C120.766 35.1649 118.027 29.8923 118.027 23.1133Z" fill="white"/>
<path d="M72.4837 32.5634C71.0457 32.5634 70.0529 33.0085 69.5051 33.8986C68.9573 34.7888 68.6834 36.1583 68.6834 38.0071H76.0786V36.3637C76.0786 33.8302 74.8803 32.5634 72.4837 32.5634ZM47.5247 41.7048C47.5247 33.5563 49.6474 27.2566 53.8928 22.8057C58.2067 18.2864 64.5064 16.0267 72.7918 16.0267C81.1458 16.0267 87.0346 17.7386 90.4583 21.1623C93.9505 24.5861 95.6966 29.482 95.6966 35.8502C95.6966 38.3837 95.4227 42.2183 94.8749 47.3539H69.0942C69.3681 51.0516 71.6278 52.9004 75.8732 52.9004C77.859 52.9004 83.0631 52.1814 91.4854 50.7434L93.2316 64.6096C85.9732 66.5269 79.1942 67.4855 72.8946 67.4855C64.6776 67.4855 58.3779 65.2258 53.9955 60.7065C49.6816 56.1872 47.5247 49.8533 47.5247 41.7048Z" fill="white"/>
<path d="M43.4245 66.4583H2.75049V2.67407H44.8625L43.4245 19.6216H24.7309V27.325H41.0621V42.1155H24.7309V50.8461H44.8625L43.4245 66.4583Z" fill="white"/>
</svg>
