<svg width="281" height="249" viewBox="0 0 281 249" fill="none" xmlns="http://www.w3.org/2000/svg">
<g clip-path="url(#clip0_1_59)">
<path d="M190.405 95.0864C189.573 96.4724 188.695 97.8307 187.91 99.2444C176.295 120.071 151.283 131.307 128.589 125.865C121.752 124.229 120.689 123.342 121.206 116.532C121.964 106.498 123.341 96.5001 124.44 86.6041C116.938 94.9663 114.942 106.387 111.957 117.346C111.403 117.309 110.839 117.272 110.285 117.244C109.98 115.701 109.268 114.112 109.453 112.624C110.396 104.844 111.56 97.0915 112.659 89.3207C112.863 87.8885 113.14 86.4748 112.9 84.8855C107.291 90.0783 104.769 96.9252 101.913 103.606C101.285 105.066 100.278 106.359 99.4463 107.727C98.1897 106.535 96.6835 105.528 95.7411 104.132C93.6436 101.046 91.8418 97.766 88.7834 94.8369C89.1899 99.6325 89.4671 104.437 90.0123 109.224C91.6662 123.749 92.8674 138.348 95.2791 152.753C98.7995 173.811 103.022 194.758 107.328 215.677C109.056 224.067 111.865 232.245 114.119 240.533C115.311 244.922 113.972 246.289 109.509 245.55C102.403 244.386 97.5244 241.494 94.8633 233.815C86.575 209.847 78.8689 185.786 73.214 161.014C67.8918 137.71 65.0274 114.112 62.2924 90.4479C61.6178 84.6268 62.9761 81.2264 68.4092 78.3436C99.4648 61.8595 132.248 56.9253 166.769 62.7003C183.918 65.5647 200.033 71.3304 215.094 80.1269C217.94 81.7901 218.845 83.6658 218.596 86.8259C216.129 118.343 211.268 149.491 202.703 179.909C197.298 199.11 190.497 217.913 184.029 236.8C182.135 242.344 174.225 246.53 168.46 245.837C165.041 245.421 165.854 243.055 166.436 240.949C168.146 234.721 170.252 228.586 171.592 222.284C175.769 202.603 180.278 182.959 183.484 163.111C186.884 142.044 188.935 120.755 191.541 99.5586C191.707 98.228 191.56 96.8605 191.56 95.5114C191.172 95.3728 190.783 95.2342 190.395 95.0956L190.405 95.0864Z" fill="white"/>
<path d="M274.286 140.722C267.947 133.321 262.45 126.53 256.527 120.127C253.57 116.92 253.283 114.703 256.785 111.848C262.265 107.385 267.522 102.654 272.863 98.0153C273.999 97.0266 275.062 95.964 276.799 94.3378C274.351 92.767 272.447 91.3533 270.368 90.2445C263.318 86.493 256.249 82.7786 249.098 79.2119C245.873 77.6042 245.42 75.7654 247.13 72.5869C251.565 64.3356 255.714 55.9272 259.936 47.5558C260.398 46.641 260.602 45.5969 261.119 44.0076C259.354 43.7119 257.931 43.3978 256.499 43.2407C246.409 42.1134 236.328 40.9122 226.22 39.9605C222.071 39.5724 220.722 38.0109 221.424 33.6958C222.939 24.2988 223.873 14.8001 225.175 5.36604C225.388 3.81373 226.238 2.35381 226.802 0.856934C228.28 1.48525 230.045 1.79017 231.191 2.79733C258.097 26.6087 274.868 55.6962 279.22 91.8984C280.957 106.35 280.504 120.561 278.204 134.615C275.533 150.896 269.324 166.114 260.786 180.399C253.551 192.513 245.069 203.564 234.342 212.628C226.395 219.336 217.747 225.25 209.209 231.219C206.344 233.224 204.561 231.829 205.06 228.207C205.938 221.822 206.862 215.418 208.248 209.135C208.488 208.036 211.158 206.65 212.591 206.77C218.245 207.26 223.891 208.11 229.472 209.2C233.353 209.958 233.981 208.461 233.649 205.051C233.048 198.934 232.835 192.78 232.364 186.645C232.068 182.894 233.695 181.378 237.428 181.277C242.962 181.12 248.479 180.464 254.004 180.279C257.432 180.168 257.913 178.726 256.795 175.871C254.272 169.431 252.082 162.843 249.273 156.532C247.638 152.855 248.719 151.108 252.036 149.796C257.756 147.532 263.447 145.204 269.139 142.885C270.525 142.321 271.893 141.73 274.286 140.713V140.722Z" fill="white"/>
<path d="M18.7108 43.9152C23.1368 52.7486 27.11 60.6857 31.0924 68.6044C31.7115 69.8425 32.2566 71.1454 33.0698 72.2542C35.352 75.3773 34.6775 77.4101 31.231 79.1379C24.5043 82.5105 17.8885 86.1049 11.2634 89.6715C8.8795 90.9559 6.58799 92.4158 3.47412 94.2638C8.56534 98.8191 13.0837 102.894 17.6298 106.923C19.8196 108.854 21.9818 110.831 24.3195 112.577C27.0823 114.638 27.073 116.514 24.8185 119.045C19.4038 125.135 14.174 131.372 8.89798 137.581C8.22347 138.366 7.73375 139.309 6.60647 141C12.132 143.282 17.214 145.638 22.4715 147.505C32.8295 151.182 32.9127 151.09 29.3368 161.18C27.2486 167.084 24.9848 172.924 22.5824 179.382C24.7445 179.835 26.3061 180.334 27.8954 180.454C32.8018 180.842 37.7175 181.12 42.6331 181.388C47.7428 181.655 48.4636 182.441 48.1586 187.541C47.789 193.686 47.5396 199.831 47.0406 205.966C46.8004 208.932 47.7521 209.856 50.6996 209.338C56.1512 208.377 61.6675 207.814 67.1098 206.788C70.5563 206.141 72.3027 206.936 72.7 210.706C73.3006 216.509 74.3632 222.274 75.0747 228.068C75.2133 229.167 74.9084 231.126 74.317 231.339C73.2452 231.736 71.5635 231.496 70.5379 230.877C49.9882 218.421 32.9866 202.372 20.5311 181.619C4.38888 154.739 -1.72799 125.901 1.14564 94.6242C2.72568 77.4101 7.57667 61.4804 15.0426 46.2252C23.1645 29.6302 34.7607 15.5207 48.556 3.26851C49.9974 1.98415 52.2981 1.66999 54.1923 0.903076C54.6174 2.61247 55.1995 4.30339 55.4305 6.0405C56.6409 15.1788 57.5187 24.3634 59.0341 33.4555C59.7363 37.6597 58.7292 39.4523 54.4695 39.8588C44.2132 40.8475 33.9753 42.0579 23.7281 43.1944C22.3976 43.3423 21.0763 43.5733 18.6924 43.9152H18.7108Z" fill="white"/>
<path d="M124.007 183.134C123.324 168.387 122.649 154.564 122.067 140.732C121.836 135.262 122.353 135.677 127.879 136.056C136.546 136.648 145.324 136.49 153.991 135.788C158.01 135.465 158.999 136.398 158.777 140.011C157.364 163.333 156.116 186.663 154.573 209.976C153.843 221.008 152.513 231.995 151.626 243.018C151.311 246.89 149.417 248.497 145.712 248.451C142.33 248.414 138.93 248.313 135.557 248.525C130.762 248.83 128.988 246.363 128.655 241.965C127.629 228.327 126.484 214.688 125.393 201.05C124.894 194.776 124.423 188.493 124.007 183.125V183.134Z" fill="white"/>
<path d="M155.858 37.3271C161.06 34.7399 166.179 31.9771 171.501 29.6856C172.868 29.0943 175.4 29.3345 176.5 30.2585C184.076 36.6249 189.149 44.83 192.679 53.9868C193.067 54.9847 193.15 56.7588 192.568 57.2947C191.93 57.8768 190.267 57.729 189.205 57.4056C169.135 51.3257 148.632 48.0824 127.74 50.3185C115.728 51.6029 103.929 54.8368 92.0278 57.1376C90.6141 57.4148 89.1265 57.3409 87.6758 57.4333C87.8144 56.0011 87.685 54.4765 88.147 53.1552C96.8418 27.9116 125.532 11.7601 151.256 17.6367C153.132 18.0617 154.869 19.1243 156.92 20.0021C150.72 25.4999 145.296 30.314 139.872 35.128L141 36.8281C148.965 31.4135 156.809 25.7124 166.437 24.1786C166.696 24.5297 166.946 24.8808 167.204 25.232C163.111 29.0388 159.018 32.8365 154.924 36.6433C155.238 36.8836 155.553 37.1146 155.858 37.3548V37.3271Z" fill="white"/>
<path d="M247.085 56.0936C247.002 60.7506 243.398 64.4189 239.009 64.3449C234.648 64.271 230.767 60.4087 230.758 56.1121C230.749 51.3997 234.408 47.8423 239.249 47.8516C243.989 47.8608 247.177 51.2057 247.085 56.0844V56.0936Z" fill="white"/>
<path d="M49.4498 56.186C49.3389 60.612 45.301 64.5574 41.1431 64.2987C36.6986 64.0215 33.2336 60.0668 33.4554 55.5485C33.6679 51.1595 37.2068 47.8423 41.6143 47.9163C46.4283 47.9902 49.5699 51.3166 49.4498 56.1953V56.186Z" fill="white"/>
<path d="M254.227 104.225C250.549 104.151 246.437 100.02 246.465 96.4169C246.493 92.6192 250.586 88.72 254.347 88.9048C258.44 89.108 262.016 92.8595 261.859 96.7957C261.72 100.251 257.571 104.289 254.227 104.225Z" fill="white"/>
<path d="M26.2141 104.16C22.3148 104.012 18.7205 100.067 18.9053 96.1304C19.0901 92.1941 22.5643 88.9047 26.4636 88.9879C30.1503 89.0618 34.3915 93.2105 34.3175 96.657C34.2436 100.039 29.6514 104.289 26.2048 104.16H26.2141Z" fill="white"/>
<path d="M33.5783 136.028C33.6152 139.604 30.1318 142.986 26.4265 142.977C22.9523 142.977 19.6721 139.798 19.5058 136.306C19.3395 132.73 22.786 129.043 26.3064 129.024C29.6882 129.006 33.5413 132.711 33.5783 136.028Z" fill="white"/>
<path d="M261.01 136.084C261.01 139.715 257.933 142.922 254.348 143.023C250.634 143.134 247.011 139.789 246.965 136.195C246.919 132.832 250.837 129.006 254.209 129.145C257.6 129.274 261.019 132.767 261.01 136.084Z" fill="white"/>
<path d="M235.664 170.078C235.756 166.641 238.861 163.832 242.409 163.98C245.643 164.118 248.517 167.066 248.545 170.281C248.572 173.672 244.987 177.211 241.716 176.999C238.399 176.786 235.572 173.552 235.673 170.078H235.664Z" fill="white"/>
<path d="M38.4459 163.998C41.7261 163.97 45.1357 167.278 44.8954 170.512C44.6182 174.264 42.1881 176.343 38.6862 176.851C35.4152 177.322 31.8763 173.515 31.9502 170.069C32.0242 167.103 35.3136 164.026 38.4367 164.007L38.4459 163.998Z" fill="white"/>
<path d="M222.987 191.265C225.916 191.44 228.448 193.935 227.838 197.068C227.376 199.442 224.576 202.076 222.164 203.157C219.753 204.247 216.195 200.052 216.195 196.92C216.195 193.667 218.801 191.2 222.987 191.265Z" fill="white"/>
<path d="M52.5938 197.105C53.0003 193.548 54.7467 191.238 58.4704 191.284C62.1017 191.33 64.0975 193.538 64.3562 197.068C64.578 200.062 61.076 203.656 58.2209 203.314C54.6912 202.889 52.9449 200.552 52.603 197.105H52.5938Z" fill="white"/>
</g>
<defs>
<clipPath id="clip0_1_59">
<rect width="279.823" height="247.687" fill="white" transform="translate(0.460938 0.866211)"/>
</clipPath>
</defs>
</svg>
