<svg width="1270" height="829" viewBox="0 0 1270 829" fill="none" xmlns="http://www.w3.org/2000/svg">
<rect y="0.0935059" width="1269.44" height="828.878" rx="26" fill="#1A1864"/>
<mask id="mask0_1_3525" style="mask-type:alpha" maskUnits="userSpaceOnUse" x="0" y="0" width="1270" height="829">
<rect y="0.0935059" width="1269.44" height="828.878" rx="27" fill="#1A1864"/>
</mask>
<g mask="url(#mask0_1_3525)">
<path d="M349.128 378.923L-0.00390625 136.58V0.0930176H31.7562L38.5407 8.19174C142.069 131.769 245.597 255.346 349.128 378.923Z" fill="#FE0FAC"/>
<path d="M224.714 345.314L8.75622 240.409L-0.00390625 236.155V139.918C74.903 208.382 149.81 276.85 224.714 345.314Z" fill="#FE0FAC"/>
<path d="M197.337 161.329L38.5424 8.19174L30.1445 0.0930176H96.28C129.965 53.837 163.649 107.585 197.337 161.329Z" fill="#FE0FAC"/>
<path d="M337.716 194.977L135.633 0.0930176H215.567C256.282 65.053 297 130.017 337.716 194.977Z" fill="#FE0FAC"/>
<path d="M400.443 680.564L326.745 808.302L314.851 828.917H259.16C270.677 816.823 282.197 804.729 293.714 792.635C329.289 755.278 364.868 717.921 400.443 680.564Z" fill="#17ADE8"/>
<path d="M284.193 720.717L246.243 806.689L236.433 828.916H204.16C230.837 792.847 257.516 756.782 284.193 720.717Z" fill="#17ADE8"/>
<path d="M346.096 701.835L293.711 792.634L272.777 828.916H225.07C232.127 821.51 239.183 814.1 246.239 806.689C279.525 771.738 312.81 736.787 346.096 701.835Z" fill="#FE0FAC"/>
<path d="M414.875 715.759L349.588 828.917H307.109C313.653 822.044 320.197 815.175 326.741 808.303C356.118 777.455 385.498 746.607 414.875 715.759Z" fill="#FE0FAC"/>
<path d="M1099.14 828.917H1075.82C1077.06 786.613 1078.31 744.313 1079.55 702.01L1099.14 828.917Z" fill="#17ADE8"/>
<path d="M1056.69 772.655L1065.38 828.916H1055.04C1055.59 810.162 1056.14 791.408 1056.69 772.655Z" fill="#17ADE8"/>
<path d="M1127.03 828.917H1105.07C1106.24 789.081 1107.41 749.245 1108.58 709.408L1127.03 828.917Z" fill="#17ADE8"/>
<path d="M159.128 336.666L-0.00390625 294.823V234.802C2.91708 236.673 5.83807 238.541 8.75622 240.41L159.128 336.666Z" fill="#FE0FAC"/>
<path d="M1224.61 0.0930176H1269.44V51.9419C1197.46 90.7724 1125.47 129.603 1053.49 168.434L1224.61 0.0930176Z" fill="#17ADE8"/>
<path d="M1158.01 0.0930176H1175.81C1161.35 10.9996 1146.89 21.9101 1132.43 32.8167L1158.01 0.0930176Z" fill="#17ADE8"/>
<path d="M1264.63 84.0164L1269.44 80.6008V82.4691C1267.84 82.9836 1266.24 83.5019 1264.63 84.0164Z" fill="#17ADE8"/>
<path d="M1178.32 239.009L1269.44 174.285V209.67C1239.06 219.451 1208.69 229.228 1178.32 239.009Z" fill="#17ADE8"/>
<path d="M1079.78 627.748L1269.44 681.403V753.622C1206.22 711.663 1143 669.707 1079.78 627.748Z" fill="#F9ED23"/>
<path d="M1206.28 615.51L1269.44 622.054V644.463C1248.39 634.814 1227.33 625.16 1206.28 615.51Z" fill="#F9ED23"/>
<path d="M1269.44 783.879V784.467C1268.98 784.045 1268.53 783.624 1268.07 783.202L1269.44 783.879Z" fill="#F9ED23"/>
</g>
</svg>
