<svg width="1441" height="749" viewBox="0 0 1441 749" fill="none" xmlns="http://www.w3.org/2000/svg">
<rect x="0.238281" y="0.544434" width="1440" height="747.884" fill="#1A1864"/>
<g clip-path="url(#clip0_1_5549)">
<g clip-path="url(#clip1_1_5549)">
<g opacity="0.51">
<path opacity="0.68" d="M341.852 556.885C329.51 542.451 317.587 527.628 307.192 512.069C329.501 528.634 349.666 547.377 369.192 566.412C374.855 571.953 382.667 579.991 388.223 585.726C391.134 588.71 390.815 593.172 387.507 595.663C384.64 597.817 380.491 597.796 377.561 595.832C370.012 590.835 362.52 585.843 355.136 580.66C336.599 567.729 318.525 554.26 301.518 539.752C298.105 536.844 294.729 533.863 291.453 530.765C295.759 532.616 299.934 534.608 304.077 536.646C316.943 542.986 329.53 549.783 341.852 556.885ZM272.401 602.928C263.464 593.42 254.18 584.182 244.361 575.349C241.386 572.691 238.352 570.052 235.164 567.5C236.923 570.95 238.81 574.287 240.786 577.608C254.468 600.633 270.719 622.392 288.062 643.422C293.651 649.953 305.014 644.823 301.932 637.071C290.322 609.792 277.476 582.666 260.357 557.522C263.199 572.859 267.402 587.953 272.403 602.902L272.401 602.928ZM201.349 572.469C195.207 589.607 190.75 607.278 186.929 624.988C184.331 611.49 181.263 598.044 177.539 584.761C176.37 580.656 175.174 576.548 173.744 572.441C173.067 580.875 172.976 589.268 173.025 597.701C173.195 618.609 174.724 639.582 176.991 660.427L178.475 672.916C178.838 676.12 181.66 678.84 185.44 679.334C189.822 679.916 193.814 677.265 194.332 673.411C195.362 666.036 196.848 655.693 197.638 648.394C200.435 623.249 202.476 597.845 201.32 572.467L201.349 572.469ZM82.6936 652.713C106.452 623.663 129.688 594.049 150.139 563.02C130.199 581.076 111.449 600.252 93.2175 619.737C102.33 602.499 111.055 585.092 119.127 567.541C121.678 562.008 124.117 556.439 126.447 550.807C118.722 560.578 111.493 570.606 104.37 580.721C86.7342 605.911 70.1808 631.853 54.3636 657.973L44.9695 673.726C43.178 676.707 44.1143 680.533 47.3429 682.706C50.8957 685.093 55.8896 684.537 58.5035 681.464C65.6838 673.015 75.7722 661.19 82.6648 652.711L82.6936 652.713ZM-31.4711 605.039C-42.0107 612.016 -63.0232 626.155 -73.4607 633.27C-76.5834 635.374 -77.4281 639.295 -75.3137 642.4C-73.024 645.779 -68.0929 646.929 -64.3491 644.994C-42.4815 633.777 -18.5098 621.324 2.90666 609.704C39.9848 589.595 76.7896 569.049 112.21 546.751C78.4516 560.36 45.5056 575.355 12.8343 590.788C35.3544 574.429 57.5045 557.727 79.0492 540.705C85.6292 535.514 92.102 530.235 98.5252 524.874C83.5279 533.125 68.8888 541.822 54.3008 550.6C25.3575 568.132 -3.38174 586.501 -31.4711 605.039ZM-179.279 555.382L-216.41 565.142C-220.32 566.167 -222.665 569.729 -221.734 573.325C-220.737 577.131 -216.434 579.57 -212.115 578.791C-169.113 570.917 -119.862 561.571 -77.2254 553.021C-19.6658 541.395 38.1763 529.288 95.0612 515.5C39.5022 522.429 -16.1378 530.959 -71.3633 539.966C-25.728 526.873 19.7007 513.275 64.6821 498.941C70.7522 496.965 76.817 495.04 82.8662 492.987C72.0468 495.133 55.9171 498.644 45.0767 500.993C-30.238 517.518 -104.917 536.025 -179.273 555.332L-179.279 555.382ZM81.9378 459.307C21.9969 457.303 -37.8956 456.785 -97.7985 456.648C-140.751 456.535 -189.328 456.909 -232.458 457.39L-277.317 458.023C-281.445 458.08 -284.822 460.948 -284.977 464.66C-285.121 468.553 -281.665 471.873 -277.247 472.102C-157.765 478.265 -36.8246 483.532 82.64 484.306C18.4885 477.854 -46.169 472.654 -110.847 468.191C-76.2434 467.083 -41.7086 465.787 -7.61195 464.242C22.2375 462.793 52.1092 461.396 81.9613 459.361L81.9378 459.307ZM86.9316 425.629C17.7092 406.853 -51.8965 389.519 -121.653 372.527C-171.678 360.339 -228.378 347.026 -278.776 335.362L-331.258 323.354C-335.34 322.42 -339.528 324.438 -340.74 327.989C-341.997 331.69 -339.567 335.67 -335.339 336.874C-197.913 375.852 -58.6073 414.336 80.3477 448.109C10.3746 425.118 -60.4563 403.112 -131.53 381.769C-93.8442 389.79 -56.1947 397.602 -18.9492 405.119C16.2851 412.145 51.5469 419.2 86.9316 425.629ZM105.845 393.19C31.3007 354.197 -44.0454 316.475 -119.571 279.092C-173.759 252.273 -235.318 222.367 -290.068 195.924L-347.099 168.529C-350.831 166.737 -355.498 167.786 -357.66 170.983C-359.891 174.277 -358.631 178.621 -354.81 180.678C-207.763 260.162 -57.6122 340.223 92.3335 415.028C14.7081 369.383 -64.4707 324.444 -144.035 280.129C-99.4291 300.846 -54.6634 321.427 -10.0599 341.607C28.5103 358.965 67.0176 376.367 105.903 393.196L105.845 393.19ZM-292.591 28.6389C-156.87 148.525 -17.9567 269.815 121.924 385.715C56.1564 323.524 -11.119 261.586 -78.9633 200.1C-44.2677 227.602 -9.52505 254.932 24.6815 281.567C60.3159 309.246 95.9491 336.949 132.037 364.188C64.4115 305.328 -4.30886 247.506 -73.3182 189.958C-139.128 135.119 -214.967 72.9053 -281.706 18.6331C-289.839 12.554 -299.733 21.9729 -292.622 28.6611L-292.591 28.6389Z" fill="url(#paint0_radial_1_5549)"/>
<path opacity="0.68" d="M1105.13 615.952C1115.8 599.88 1125.99 583.433 1134.71 566.25C1114.74 585.037 1096.96 606.03 1079.8 627.364C1074.81 633.556 1067.99 642.555 1063.14 648.963C1060.6 652.306 1061.25 657.065 1064.6 659.601C1067.48 661.791 1071.43 661.599 1074.11 659.35C1080.9 653.669 1087.67 647.961 1094.32 642.064C1110.98 627.35 1127.16 612.095 1142.25 595.767C1145.29 592.468 1148.27 589.143 1151.15 585.683C1147.2 587.876 1143.38 590.177 1139.57 592.559C1127.79 599.933 1116.35 607.767 1105.13 615.952ZM1174.83 662.501C1182.61 651.892 1190.73 641.549 1199.42 631.633C1202.07 628.645 1204.75 625.654 1207.61 622.799C1206.2 626.584 1204.65 630.264 1203.05 633.917C1191.77 659.271 1177.95 683.362 1163.07 706.735C1158.25 713.992 1147.03 708.958 1149.35 700.491C1158.3 670.66 1168.49 640.94 1182.84 613.164C1181.33 629.76 1178.48 646.192 1174.85 662.474L1174.83 662.501ZM1240.2 626.676C1247.36 644.847 1252.95 663.654 1257.97 682.528C1259.42 667.881 1261.31 653.307 1263.81 638.857C1264.61 634.371 1265.45 629.911 1266.48 625.446C1267.77 634.47 1268.51 643.504 1269.11 652.597C1270.55 675.083 1270.7 697.731 1270.15 720.23L1269.72 733.732C1269.61 737.19 1267.13 740.23 1263.58 740.936C1259.44 741.734 1255.46 739.074 1254.66 734.95C1253.09 727.057 1250.88 716.023 1249.56 708.179C1244.98 681.234 1241.06 654.028 1240.22 626.676H1240.2ZM1359.36 707.881C1334.5 677.652 1310.08 646.813 1288.23 614.328C1308.63 632.883 1327.97 652.722 1346.81 672.872C1336.8 654.733 1327.15 636.393 1318.11 617.85C1315.27 612.013 1312.5 606.119 1309.84 600.168C1317.95 610.338 1325.62 620.82 1333.16 631.388C1351.88 657.712 1369.67 684.905 1386.7 712.333L1396.86 728.851C1398.8 731.993 1398.2 736.146 1395.31 738.591C1392.09 741.318 1387.31 740.924 1384.57 737.717C1377.07 728.932 1366.55 716.644 1359.34 707.826L1359.36 707.881ZM1464.51 651.704C1475.1 658.752 1496.19 673.043 1506.68 680.257C1509.81 682.387 1510.94 686.56 1509.14 689.997C1507.2 693.712 1502.61 695.178 1498.9 693.253C1477.21 682.13 1453.42 669.76 1432.11 658.189C1395.23 638.165 1358.6 617.642 1323.14 595.204C1356.33 608.393 1388.89 623.076 1421.19 638.285C1398.49 621.643 1376.07 604.639 1354.26 587.263C1347.61 581.972 1341 576.569 1334.49 571.082C1349.4 579.33 1364.02 588.021 1378.58 596.852C1407.5 614.436 1436.29 632.954 1464.48 651.705L1464.51 651.704ZM1601.47 591.936L1637.6 600.841C1641.39 601.777 1643.92 605.51 1643.29 609.416C1642.62 613.544 1638.7 616.368 1634.55 615.712C1593.01 609.114 1545.35 601.161 1504.05 593.815C1448.32 583.78 1392.27 573.258 1337.05 560.881C1390.54 565.945 1444.16 572.705 1497.47 580.048C1452.98 567.943 1408.65 555.258 1364.74 541.769C1358.8 539.89 1352.85 538.093 1346.95 536.159C1357.41 537.999 1373.08 541.076 1383.57 543.135C1456.58 557.666 1529.15 574.373 1601.47 591.936ZM1345.27 499.856C1402.2 495.139 1459.23 492.012 1516.29 489.267C1557.19 487.296 1603.52 485.624 1644.64 484.279L1687.43 483.037C1691.36 482.954 1694.8 485.873 1695.22 489.841C1695.66 494 1692.6 497.738 1688.43 498.182C1575.07 509.962 1460.27 520.813 1346.52 526.761C1407.14 517.059 1468.33 508.69 1529.6 501.113C1496.55 501.413 1463.55 501.494 1430.95 501.291C1402.41 501.005 1373.84 500.802 1345.27 499.883V499.856ZM1337.92 463.836C1402.42 440.671 1467.41 419.03 1532.56 397.772C1579.27 382.517 1632.29 365.759 1679.41 351.044L1728.47 335.878C1732.3 334.702 1736.45 336.672 1737.87 340.455C1739.35 344.373 1737.35 348.748 1733.4 350.228C1605.47 398.044 1475.69 445.406 1345.92 487.722C1410.82 459.995 1476.62 433.293 1542.69 407.27C1507.4 417.518 1472.13 427.544 1437.22 437.235C1404.19 446.283 1371.16 455.414 1337.92 463.863V463.836ZM1317.41 429.761C1385.44 384.61 1454.32 340.841 1523.4 297.368C1572.96 266.203 1629.34 231.386 1679.46 200.593L1731.7 168.687C1735.12 166.613 1739.65 167.507 1741.95 170.861C1744.33 174.322 1743.44 179.057 1740 181.431C1606.03 273.225 1469.11 365.765 1332.02 452.659C1402.49 400.246 1474.45 348.487 1546.84 297.432C1505.92 321.644 1464.87 345.696 1423.92 369.306C1388.51 389.62 1353.16 409.988 1317.41 429.761ZM1669 20.6043C1548.88 155.359 1425.88 291.765 1301.5 422.412C1359.36 352.708 1418.72 283.192 1478.61 214.159C1447.65 245.213 1416.65 276.132 1386.12 306.218C1354.29 337.509 1322.46 368.829 1290.16 399.665C1350.05 333.456 1411.09 268.321 1472.42 203.454C1530.91 141.663 1598.37 71.4855 1657.79 10.2507C1665.06 3.35356 1675.22 13.0709 1668.95 20.578L1669 20.6043Z" fill="url(#paint1_radial_1_5549)"/>
</g>
</g>
</g>
<defs>
<radialGradient id="paint0_radial_1_5549" cx="0" cy="0" r="1" gradientUnits="userSpaceOnUse" gradientTransform="translate(60.0361 372.436) rotate(-105.798) scale(376.924 415.293)">
<stop stop-color="#F47920"/>
<stop offset="0.65" stop-color="#DC3069"/>
<stop offset="1" stop-color="#D20F8C"/>
</radialGradient>
<radialGradient id="paint1_radial_1_5549" cx="0" cy="0" r="1" gradientUnits="userSpaceOnUse" gradientTransform="translate(1359.62 405.503) rotate(-79.9524) scale(400.59 401.627)">
<stop offset="0.3" stop-color="#FDEE00"/>
<stop offset="0.36" stop-color="#F2EB06"/>
<stop offset="0.47" stop-color="#D5E416"/>
<stop offset="0.61" stop-color="#A6D831"/>
<stop offset="0.77" stop-color="#66C956"/>
<stop offset="0.96" stop-color="#14B585"/>
<stop offset="1" stop-color="#00B091"/>
</radialGradient>
<clipPath id="clip0_1_5549">
<rect width="1440" height="731" fill="white" transform="translate(0 17.8955)"/>
</clipPath>
<clipPath id="clip1_1_5549">
<rect width="1883" height="742" fill="white" transform="translate(-258.238 17.8955)"/>
</clipPath>
</defs>
</svg>
