<svg width="1441" height="942" viewBox="0 0 1441 942" fill="none" xmlns="http://www.w3.org/2000/svg">
<g clip-path="url(#clip0_1_27)">
<path d="M1440.42 0.663086H0.421875V945.663H1440.42V0.663086Z" fill="url(#paint0_radial_1_27)" fill-opacity="0.41"/>
<path d="M396.462 432.594L0.421875 156.282V0.663086H36.4492L44.1452 9.89701C161.583 150.796 279.021 291.695 396.462 432.594Z" fill="#FE0FAC"/>
<path d="M255.332 394.273L10.359 274.665L0.421875 269.814V160.087C85.3931 238.148 170.364 316.213 255.332 394.273Z" fill="#FE0FAC"/>
<path d="M224.273 184.499L44.1433 9.89701L34.6172 0.663086H109.638C147.849 61.9404 186.06 123.222 224.273 184.499Z" fill="#FE0FAC"/>
<path d="M383.524 222.864L154.289 0.663086H244.963C291.148 74.7285 337.338 148.798 383.524 222.864Z" fill="#FE0FAC"/>
<path d="M454.672 776.516L371.071 922.159L357.58 945.663H294.406C307.471 931.874 320.538 918.085 333.602 904.296C373.958 861.702 414.316 819.109 454.672 776.516Z" fill="#17ADE8"/>
<path d="M322.801 822.297L279.752 920.321L268.624 945.663H232.016C262.276 904.538 292.541 863.418 322.801 822.297Z" fill="#17ADE8"/>
<path d="M393.025 800.769L333.601 904.296L309.855 945.663H255.738C263.743 937.219 271.747 928.77 279.751 920.321C317.509 880.47 355.267 840.62 393.025 800.769Z" fill="#FE0FAC"/>
<path d="M471.049 816.644L396.991 945.663H348.805C356.228 937.827 363.651 929.995 371.074 922.159C404.398 886.988 437.725 851.816 471.049 816.644Z" fill="#FE0FAC"/>
<path d="M1247.25 945.663H1220.8C1222.21 897.43 1223.62 849.201 1225.03 800.967L1247.25 945.663Z" fill="#17ADE8"/>
<path d="M1199.09 881.515L1208.95 945.663H1197.22C1197.84 924.28 1198.47 902.898 1199.09 881.515Z" fill="#17ADE8"/>
<path d="M1278.88 945.663H1253.97C1255.3 900.243 1256.62 854.823 1257.95 809.403L1278.88 945.663Z" fill="#17ADE8"/>
<path d="M180.934 384.413L0.421875 336.705V268.271C3.73532 270.405 7.04876 272.535 10.359 274.665L180.934 384.413Z" fill="#FE0FAC"/>
<path d="M1389.57 0.663086H1440.42V59.7796C1358.77 104.053 1277.11 148.326 1195.45 192.6L1389.57 0.663086Z" fill="#17ADE8"/>
<path d="M1314.03 0.663086H1334.22C1317.82 13.0985 1301.42 25.5382 1285.01 37.9736L1314.03 0.663086Z" fill="#17ADE8"/>
<path d="M1434.97 96.3493L1440.42 92.4556V94.5855C1438.61 95.1719 1436.79 95.7628 1434.97 96.3493Z" fill="#17ADE8"/>
<path d="M1337.06 273.068L1440.42 199.272V239.616C1405.97 250.769 1371.52 261.916 1337.06 273.068Z" fill="#17ADE8"/>
<path d="M1225.28 716.296L1440.42 777.472V859.815C1368.71 811.974 1296.99 764.137 1225.28 716.296Z" fill="#F9ED23"/>
<path d="M1368.78 702.344L1440.42 709.805V735.355C1416.54 724.353 1392.66 713.346 1368.78 702.344Z" fill="#F9ED23"/>
<path d="M1440.42 894.312V894.982C1439.91 894.502 1439.39 894.021 1438.88 893.541L1440.42 894.312Z" fill="#F9ED23"/>
</g>
<defs>
<radialGradient id="paint0_radial_1_27" cx="0" cy="0" r="1" gradientUnits="userSpaceOnUse" gradientTransform="translate(720.422 472.803) scale(666.828 540.35)">
<stop stop-color="#2F2E79"/>
<stop offset="1" stop-color="#1E1C53"/>
</radialGradient>
<clipPath id="clip0_1_27">
<rect width="1440" height="941" fill="white" transform="translate(0.421875 0.663086)"/>
</clipPath>
</defs>
</svg>
