<svg width="1271" height="830" viewBox="0 0 1271 830" fill="none" xmlns="http://www.w3.org/2000/svg">
<mask id="mask0_1_239" style="mask-type:alpha" maskUnits="userSpaceOnUse" x="0" y="0" width="1271" height="830">
<rect x="0.8125" y="0.545898" width="1269.44" height="828.878" rx="27" fill="#1A1864"/>
</mask>
<g mask="url(#mask0_1_239)">
<path d="M349.94 379.375L0.808594 137.032V0.54541H32.5687L39.3532 8.64413C142.881 132.221 246.409 255.798 349.94 379.375Z" fill="#FE0FAC"/>
<path d="M225.526 345.766L9.56872 240.862L0.808594 236.607V140.37C75.7155 208.834 150.622 277.302 225.526 345.766Z" fill="#FE0FAC"/>
<path d="M198.15 161.781L39.3549 8.64413L30.957 0.54541H97.0925C130.777 54.2894 164.462 108.037 198.15 161.781Z" fill="#FE0FAC"/>
<path d="M338.528 195.429L136.445 0.54541H216.379C257.094 65.5054 297.813 130.469 338.528 195.429Z" fill="#FE0FAC"/>
<path d="M401.256 681.016L327.557 808.755L315.664 829.369H259.973C271.49 817.275 283.009 805.181 294.526 793.087C330.102 755.73 365.68 718.373 401.256 681.016Z" fill="#17ADE8"/>
<path d="M285.005 721.169L247.055 807.142L237.245 829.369H204.973C231.649 793.299 258.329 757.234 285.005 721.169Z" fill="#17ADE8"/>
<path d="M346.908 702.288L294.523 793.087L273.589 829.369H225.883C232.939 821.962 239.995 814.552 247.051 807.142C280.337 772.19 313.623 737.239 346.908 702.288Z" fill="#FE0FAC"/>
<path d="M415.687 716.211L350.401 829.369H307.922C314.466 822.497 321.01 815.628 327.554 808.755C356.93 777.907 386.31 747.059 415.687 716.211Z" fill="#FE0FAC"/>
<path d="M1099.95 829.369H1076.63C1077.88 787.065 1079.12 744.766 1080.36 702.462L1099.95 829.369Z" fill="#17ADE8"/>
<path d="M1057.5 773.107L1066.19 829.369H1055.85C1056.4 810.615 1056.95 791.861 1057.5 773.107Z" fill="#17ADE8"/>
<path d="M1127.84 829.369H1105.88C1107.05 789.533 1108.22 749.697 1109.39 709.861L1127.84 829.369Z" fill="#17ADE8"/>
<path d="M159.94 337.118L0.808594 295.275V235.254C3.72958 237.126 6.65057 238.994 9.56872 240.862L159.94 337.118Z" fill="#FE0FAC"/>
<path d="M1225.42 0.54541H1270.26V52.3943C1198.27 91.2248 1126.29 130.055 1054.3 168.886L1225.42 0.54541Z" fill="#17ADE8"/>
<path d="M1158.83 0.54541H1176.63C1162.16 11.452 1147.71 22.3625 1133.25 33.2691L1158.83 0.54541Z" fill="#17ADE8"/>
<path d="M1265.45 84.4688L1270.25 81.0532V82.9215C1268.65 83.436 1267.05 83.9543 1265.45 84.4688Z" fill="#17ADE8"/>
<path d="M1179.13 239.462L1270.25 174.738V210.122C1239.88 219.903 1209.51 229.681 1179.13 239.462Z" fill="#17ADE8"/>
<path d="M1080.59 628.2L1270.25 681.855V754.075C1207.03 712.115 1143.81 670.16 1080.59 628.2Z" fill="#F9ED23"/>
<path d="M1207.09 615.963L1270.25 622.507V644.916C1249.2 635.266 1228.15 625.613 1207.09 615.963Z" fill="#F9ED23"/>
<path d="M1270.25 784.331V784.919C1269.8 784.498 1269.34 784.076 1268.89 783.654L1270.25 784.331Z" fill="#F9ED23"/>
</g>
</svg>
