<svg width="281" height="135" viewBox="0 0 281 135" fill="none" xmlns="http://www.w3.org/2000/svg">
<mask id="mask0_1_192" style="mask-type:alpha" maskUnits="userSpaceOnUse" x="0" y="0" width="281" height="135">
<g style="mix-blend-mode:overlay">
<rect x="0.0234375" y="0.611328" width="280.131" height="133.965" fill="#AD0000"/>
</g>
</mask>
<g mask="url(#mask0_1_192)">
<path opacity="0.68" d="M243.858 105.992C234.789 108.06 225.758 110.456 216.974 113.695C230.115 114.147 243.264 112.918 256.317 111.319C260.11 110.861 265.475 110.027 269.29 109.428C271.286 109.122 272.68 107.052 272.403 104.798C272.17 102.858 270.764 101.418 269.092 101.253C264.864 100.83 260.632 100.422 256.38 100.136C245.741 99.3917 235.078 99.0343 224.424 99.5081C222.277 99.6097 220.138 99.7413 217.989 99.9644C220.072 100.636 222.147 101.218 224.245 101.762C230.741 103.449 237.278 104.83 243.858 105.992ZM236.008 61.4947C229.772 62.5777 223.511 63.4282 217.2 63.8953C215.291 64.0283 213.368 64.1467 211.428 64.1437C213.191 63.2352 214.962 62.4172 216.746 61.6347C229.166 56.2441 242.022 52.3133 254.994 49.0629C259.091 48.1321 261.189 54.3535 257.528 56.7036C244.38 64.6988 230.847 72.1755 216.56 77.3118C222.702 71.5401 229.241 66.3413 235.99 61.4952L236.008 61.4947ZM201.693 50.1862C205.425 40.4873 209.909 31.1511 214.606 22.0045C209.147 27.0556 203.562 31.9085 197.815 36.4837C196.024 37.8955 194.228 39.2823 192.363 40.596C194.984 36.6462 197.8 32.9077 200.679 29.1968C207.816 20.0391 215.443 11.3095 223.259 2.90764L227.984 -2.09557C229.196 -3.3743 231.065 -3.59186 232.51 -2.50042C234.182 -1.22421 234.633 1.32076 233.505 3.20447C231.36 6.82656 228.368 11.8959 226.156 15.404C218.571 27.4701 210.676 39.3859 201.684 50.1762L201.693 50.1862ZM188.821 -26.5123C187 -5.42585 184.825 15.7291 181.219 36.5279C180.594 21.6168 180.763 6.61948 181.206 -8.30646C178.447 2.4661 175.501 13.1804 172.281 23.7422C171.264 27.0627 170.205 30.38 169.088 33.6738C169.787 26.6775 170.739 19.727 171.768 12.7986C174.345 -4.44529 177.535 -21.6618 181.059 -38.6828L183.215 -48.8949C183.624 -50.8382 185.236 -52.1978 187.045 -52.0276C189.06 -51.84 190.55 -49.8573 190.389 -47.5837C189.955 -41.3477 189.354 -32.6197 188.811 -26.4813L188.821 -26.5123ZM134.116 -45.2573C132.914 -52.0097 130.608 -65.5538 129.498 -72.3296C129.16 -74.341 130.189 -76.3738 131.967 -76.9989C133.883 -77.6802 135.936 -76.4844 136.543 -74.3261C140.127 -61.7642 143.999 -47.9242 147.303 -35.3363C153.017 -13.5563 158.478 8.3198 162.895 30.4837C156.113 12.7313 150.051 -5.35277 144.256 -23.5379C146.31 -8.47817 148.144 6.61021 149.649 21.6102C150.111 26.1835 150.518 30.7793 150.866 35.3725C148.608 26.5091 146.598 17.5861 144.653 8.6297C140.811 -9.16804 137.327 -27.2786 134.125 -45.2478L134.116 -45.2573ZM67.4042 -74.8059L58.1722 -92.0447C57.2038 -93.8547 57.6136 -96.2494 59.1512 -97.5046C60.777 -98.8292 63.065 -98.4087 64.2483 -96.5709C76.0982 -78.1429 89.564 -56.8537 101.076 -38.2348C116.572 -13.0606 132.009 12.4204 146.538 38.2959C130.119 15.8855 114.227 -7.22946 98.6384 -30.4474C109.623 -8.78017 120.354 13.0436 130.67 35.0152C132.046 38.007 133.454 40.9723 134.798 43.97C131.874 39.2613 127.605 32.0873 124.747 27.2847C104.914 -6.22775 85.9743 -40.3981 67.4042 -74.8059ZM123.059 58.512C102.153 38.5238 81.7554 17.8921 61.4736 -2.90078C46.9348 -17.803 30.6575 -34.8972 16.2604 -50.1197L1.32577 -66.0267C-0.0323405 -67.4969 -0.208923 -69.9305 0.994818 -71.6096C2.25422 -73.3717 4.55965 -73.6315 6.12453 -72.2044C48.5596 -33.3219 91.1672 6.46718 131.757 47.7327C107.91 28.2413 84.3245 8.02458 60.9766 -12.5307C72.288 0.008223 83.5029 12.6059 94.4884 25.1623C104.071 36.1985 113.691 47.2132 123.069 58.5015L123.059 58.512ZM113.337 75.113C83.6077 59.2884 54.2313 42.6951 24.9312 25.8955C3.91936 13.8553 -19.7442 -0.0269213 -40.7105 -12.4289L-62.4904 -25.4039C-64.1885 -26.4202 -64.926 -28.7612 -64.1265 -30.7549C-63.2992 -32.82 -61.1372 -33.7288 -59.2961 -32.7838C0.298494 -2.11908 60.3684 29.4305 118.723 62.9064C87.3139 48.6778 55.946 33.7119 24.7157 18.3803C40.1585 27.9675 55.5177 37.6291 70.6431 47.2843C84.9123 56.4643 99.2095 65.6128 113.346 75.1025L113.337 75.113ZM108.735 96.0047C70.3575 87.2496 32.156 77.635 -6.0117 67.832C-33.3856 60.791 -64.3078 52.5399 -91.7463 45.1414L-120.28 37.3578C-122.145 36.84 -123.377 34.7662 -123.02 32.6014C-122.653 30.3657 -120.746 28.8935 -118.775 29.301C-42.2185 45.4443 35.5927 62.4333 111.547 81.6488C69.8773 74.7375 27.9243 67.005 -13.9362 58.8378C8.14886 65.2318 30.2238 71.7372 52.1179 78.3768C71.0144 84.1555 89.9068 89.8887 108.735 96.0047ZM-149.233 118.042C-62.8049 112.44 25.1585 107.307 111.639 104.91C68.3813 109.442 24.6815 113.332 -19.0365 116.832C1.98985 116.793 22.988 116.825 43.5439 116.997C64.9479 117.202 86.3612 117.397 107.77 117.956C65.0102 120.375 22.2237 121.943 -20.5692 123.297C-61.3568 124.56 -108.03 125.6 -148.944 126.295C-153.748 126.152 -153.899 118.543 -149.225 118.072L-149.233 118.042Z" fill="url(#paint0_radial_1_192)"/>
</g>
<defs>
<radialGradient id="paint0_radial_1_192" cx="0" cy="0" r="1" gradientUnits="userSpaceOnUse" gradientTransform="translate(86.1956 89.1327) rotate(141.726) scale(200.566 208.246)">
<stop offset="0.3" stop-color="#FDEE00"/>
<stop offset="0.36" stop-color="#F2EB06"/>
<stop offset="0.47" stop-color="#D5E416"/>
<stop offset="0.61" stop-color="#A6D831"/>
<stop offset="0.77" stop-color="#66C956"/>
<stop offset="0.96" stop-color="#14B585"/>
<stop offset="1" stop-color="#00B091"/>
</radialGradient>
</defs>
</svg>
