<svg width="232" height="232" viewBox="0 0 232 232" fill="none" xmlns="http://www.w3.org/2000/svg">
<path fill-rule="evenodd" clip-rule="evenodd" d="M137.922 62.702L115.708 0.699707L93.4948 62.702L33.9454 34.567L62.0804 94.1164L0.078125 116.33L62.0804 138.543L33.9454 198.093L93.4948 169.958L115.708 231.96L137.922 169.958L197.471 198.093L169.336 138.543L231.338 116.33L169.336 94.1164L197.471 34.567L137.922 62.702ZM115.705 151.616C135.193 151.616 150.992 135.818 150.992 116.329C150.992 96.841 135.193 81.0425 115.705 81.0425C96.2165 81.0425 80.418 96.841 80.418 116.329C80.418 135.818 96.2165 151.616 115.705 151.616Z" fill="#CDA000"/>
</svg>
