<svg  fill="none" xmlns="http://www.w3.org/2000/svg">
<g opacity="0.51">
<path opacity="0.68" d="M701.567 549.048C689.225 534.615 677.302 519.792 666.906 504.232C689.216 520.797 709.381 539.54 728.907 558.576C734.57 564.116 742.382 572.155 747.938 577.89C750.849 580.873 750.53 585.336 747.222 587.826C744.355 589.981 740.206 589.96 737.276 587.996C729.727 582.999 722.235 578.007 714.851 572.823C696.314 559.893 678.24 546.423 661.233 531.916C657.82 529.008 654.443 526.027 651.168 522.928C655.474 524.78 659.649 526.771 663.792 528.809C676.658 535.15 689.245 541.946 701.567 549.048ZM632.115 595.091C623.179 585.584 613.895 576.346 604.076 567.512C601.101 564.854 598.067 562.215 594.879 559.663C596.638 563.114 598.525 566.451 600.501 569.772C614.182 592.796 630.434 614.555 647.777 635.586C653.366 642.116 664.729 636.986 661.647 629.235C650.037 601.956 637.19 574.829 620.072 549.686C622.914 565.023 627.116 580.117 632.118 595.065L632.115 595.091ZM561.064 564.633C554.922 581.771 550.465 599.442 546.644 617.152C544.046 603.654 540.978 590.208 537.254 576.925C536.085 572.82 534.889 568.712 533.459 564.604C532.782 573.039 532.69 581.432 532.74 589.865C532.91 610.772 534.439 631.745 536.706 652.59L538.19 665.079C538.553 668.283 541.374 671.004 545.155 671.498C549.537 672.079 553.529 669.428 554.047 665.575C555.077 658.199 556.563 647.857 557.353 640.558C560.15 615.412 562.191 590.008 561.035 564.63L561.064 564.633ZM442.408 644.877C466.167 615.827 489.402 586.212 509.854 555.184C489.914 573.24 471.163 592.415 452.932 611.9C462.045 594.662 470.77 577.256 478.842 559.705C481.393 554.172 483.832 548.602 486.162 542.97C478.436 552.741 471.208 562.769 464.085 572.885C446.449 598.075 429.896 624.016 414.078 650.136L404.684 665.889C402.893 668.87 403.829 672.696 407.058 674.87C410.611 677.256 415.604 676.701 418.218 673.627C425.399 665.178 435.487 653.353 442.38 644.874L442.408 644.877ZM328.244 597.203C317.704 604.179 296.692 618.319 286.254 625.434C283.131 627.537 282.287 631.458 284.401 634.563C286.691 637.942 291.622 639.092 295.366 637.157C317.233 625.941 341.205 613.487 362.622 601.867C399.7 581.759 436.504 561.212 471.924 538.914C438.166 552.523 405.22 567.519 372.549 582.952C395.069 566.593 417.219 549.891 438.764 532.869C445.344 527.678 451.817 522.399 458.24 517.038C443.243 525.289 428.604 533.985 414.016 542.764C385.072 560.296 356.333 578.664 328.244 597.203ZM180.436 547.546L143.305 557.305C139.395 558.33 137.05 561.893 137.981 565.488C138.977 569.295 143.281 571.733 147.6 570.955C190.602 563.081 239.853 553.735 282.489 545.184C340.049 533.559 397.891 521.452 454.776 507.663C399.217 514.593 343.577 523.123 288.352 532.13C333.987 519.037 379.416 505.438 424.397 491.104C430.467 489.129 436.532 487.204 442.581 485.15C431.762 487.297 415.632 490.807 404.792 493.157C329.477 509.682 254.798 528.189 180.441 547.495L180.436 547.546ZM441.653 451.471C381.712 449.466 321.819 448.949 261.916 448.812C218.964 448.698 170.387 449.073 127.257 449.554L82.3978 450.186C78.2696 450.244 74.8932 453.111 74.7383 456.824C74.5935 460.716 78.05 464.036 82.4677 464.266C201.95 470.429 322.89 475.696 442.355 476.469C378.203 470.018 313.546 464.818 248.868 460.355C283.471 459.247 318.006 457.95 352.103 456.405C381.952 454.956 411.824 453.56 441.676 451.524L441.653 451.471ZM446.646 417.792C377.424 399.017 307.818 381.682 238.061 364.691C188.037 352.503 131.337 339.19 80.9389 327.525L28.4573 315.518C24.3744 314.584 20.187 316.601 18.9745 320.152C17.7176 323.853 20.1474 327.833 24.3762 329.038C161.802 368.016 301.108 406.499 440.063 440.273C370.089 417.281 299.259 395.276 228.185 373.932C265.871 381.953 303.52 389.766 340.766 397.282C376 404.309 411.262 411.364 446.646 417.792ZM465.56 385.353C391.016 346.361 315.669 308.639 240.144 271.256C185.956 244.437 124.397 214.53 69.6471 188.088L12.6163 160.693C8.88416 158.901 4.21707 159.949 2.05462 163.147C-0.175815 166.441 1.08383 170.785 4.90449 172.841C151.952 252.325 302.103 332.387 452.048 407.192C374.423 361.547 295.244 316.608 215.68 272.293C260.286 293.01 305.051 313.59 349.655 333.77C388.225 351.129 426.732 368.531 465.618 385.36L465.56 385.353ZM67.1243 20.8025C202.845 140.689 341.758 261.979 481.639 377.878C415.871 315.687 348.596 253.749 280.752 192.264C315.447 219.766 350.19 247.096 384.396 273.731C420.031 301.409 455.664 329.112 491.752 356.351C424.126 297.492 355.406 239.669 286.397 182.122C220.587 127.283 144.748 65.0688 78.0091 10.7967C69.8762 4.71757 59.9815 14.1365 67.0929 20.8246L67.1243 20.8025Z" fill="url(#paint0_radial_1_179)"/>
<path opacity="0.68" d="M1464.85 608.116C1475.52 592.044 1485.7 575.597 1494.42 558.414C1474.46 577.201 1456.67 598.193 1439.52 619.528C1434.52 625.719 1427.7 634.718 1422.86 641.126C1420.31 644.47 1420.96 649.228 1424.31 651.765C1427.19 653.954 1431.15 653.763 1433.83 651.513C1440.61 645.833 1447.39 640.125 1454.03 634.228C1470.69 619.513 1486.88 604.259 1501.97 587.931C1505 584.631 1507.98 581.306 1510.86 577.846C1506.91 580.04 1503.09 582.34 1499.29 584.723C1487.51 592.097 1476.06 599.93 1464.85 608.116ZM1534.54 654.665C1542.32 644.055 1550.44 633.713 1559.14 623.797C1561.78 620.808 1564.46 617.818 1567.32 614.962C1565.91 618.748 1564.37 622.428 1562.76 626.08C1551.49 651.435 1537.67 675.526 1522.79 698.898C1517.96 706.155 1506.74 701.122 1509.07 692.654C1518.01 662.823 1528.2 633.104 1542.56 605.328C1541.04 621.923 1538.19 638.355 1534.57 654.638L1534.54 654.665ZM1599.91 618.839C1607.08 637.011 1612.66 655.818 1617.68 674.691C1619.13 660.044 1621.03 645.47 1623.53 631.02C1624.32 626.534 1625.16 622.074 1626.19 617.609C1627.49 626.633 1628.22 635.668 1628.82 644.761C1630.26 667.246 1630.42 689.895 1629.87 712.394L1629.44 725.896C1629.32 729.354 1626.85 732.394 1623.29 733.099C1619.16 733.897 1615.17 731.237 1614.37 727.114C1612.8 719.22 1610.59 708.187 1609.27 700.343C1604.7 673.398 1600.77 646.191 1599.94 618.839H1599.91ZM1719.08 700.044C1694.22 669.815 1669.79 638.976 1647.94 606.491C1668.34 625.046 1687.68 644.886 1706.52 665.036C1696.52 646.897 1686.87 628.557 1677.82 610.013C1674.98 604.176 1672.21 598.282 1669.56 592.332C1677.66 602.502 1685.34 612.984 1692.87 623.552C1711.6 649.875 1729.38 677.069 1746.42 704.496L1756.58 721.015C1758.51 724.156 1757.91 728.31 1755.02 730.755C1751.81 733.481 1747.02 733.088 1744.29 729.881C1736.78 721.096 1726.27 708.808 1719.05 699.99L1719.08 700.044ZM1824.22 643.868C1834.82 650.916 1855.91 665.207 1866.39 672.421C1869.52 674.55 1870.66 678.723 1868.85 682.161C1866.92 685.876 1862.33 687.342 1858.61 685.417C1836.92 674.294 1813.13 661.923 1791.82 650.353C1754.94 630.329 1718.32 609.806 1682.85 587.367C1716.04 600.556 1748.6 615.24 1780.9 630.449C1758.2 613.807 1735.79 596.802 1713.98 579.427C1707.32 574.135 1700.72 568.733 1694.21 563.245C1709.11 571.493 1723.73 580.185 1738.3 589.016C1767.21 606.599 1796 625.118 1824.2 643.869L1824.22 643.868ZM1961.19 584.099L1997.32 593.005C2001.11 593.941 2003.63 597.673 2003 601.58C2002.34 605.707 1998.41 608.532 1994.27 607.876C1952.73 601.278 1905.06 593.324 1863.77 585.979C1808.03 575.944 1751.99 565.422 1696.77 553.045C1750.25 558.109 1803.88 564.869 1857.19 572.212C1812.69 560.106 1768.36 547.422 1724.45 533.933C1718.51 532.054 1712.56 530.257 1706.67 528.323C1717.13 530.163 1732.79 533.239 1743.28 535.298C1816.3 549.829 1888.86 566.537 1961.19 584.099ZM1704.98 492.02C1761.91 487.303 1818.94 484.176 1876.01 481.431C1916.91 479.459 1963.24 477.787 2004.35 476.443L2047.15 475.2C2051.07 475.118 2054.51 478.036 2054.93 482.005C2055.37 486.163 2052.32 489.902 2048.14 490.345C1934.78 502.126 1819.99 512.977 1706.24 518.925C1766.86 509.223 1828.04 500.853 1889.32 493.277C1856.26 493.577 1823.27 493.658 1790.67 493.454C1762.12 493.169 1733.55 492.965 1704.98 492.047V492.02ZM1697.63 455.999C1762.14 432.834 1827.13 411.194 1892.27 389.935C1938.98 374.681 1992.01 357.922 2039.12 343.208L2088.18 328.042C2092.01 326.865 2096.16 328.836 2097.59 332.619C2099.06 336.536 2097.06 340.911 2093.11 342.391C1965.19 390.208 1835.4 437.569 1705.63 479.886C1770.53 452.159 1836.33 425.456 1902.41 399.434C1867.11 409.681 1831.85 419.708 1796.93 429.398C1763.9 438.447 1730.87 447.578 1697.63 456.027V455.999ZM1677.13 421.925C1745.15 376.774 1814.04 333.005 1883.12 289.532C1932.68 258.367 1989.05 223.55 2039.17 192.756L2091.41 160.85C2094.84 158.777 2099.36 159.67 2101.67 163.024C2104.05 166.485 2103.16 171.22 2099.72 173.595C1965.75 265.389 1828.83 357.929 1691.73 444.822C1762.2 392.409 1834.16 340.65 1906.55 289.596C1865.64 313.808 1824.59 337.86 1783.63 361.469C1748.22 381.784 1712.88 402.152 1677.13 421.925ZM2028.71 12.7679C1908.59 147.523 1785.6 283.928 1661.21 414.575C1719.08 344.872 1778.43 275.356 1838.32 206.322C1807.37 237.377 1776.36 268.296 1745.83 298.381C1714 329.673 1682.17 360.992 1649.88 391.829C1709.77 325.62 1770.81 260.484 1832.13 195.617C1890.63 133.827 1958.09 63.649 2017.51 2.41429C2024.78 -4.48287 2034.94 5.23445 2028.66 12.7416L2028.71 12.7679Z" fill="url(#paint1_radial_1_179)"/>
</g>
<defs>
<radialGradient id="paint0_radial_1_179" cx="0" cy="0" r="1" gradientUnits="userSpaceOnUse" gradientTransform="translate(419.751 364.599) rotate(-105.798) scale(376.924 415.293)">
<stop stop-color="#F47920"/>
<stop offset="0.65" stop-color="#DC3069"/>
<stop offset="1" stop-color="#D20F8C"/>
</radialGradient>
<radialGradient id="paint1_radial_1_179" cx="0" cy="0" r="1" gradientUnits="userSpaceOnUse" gradientTransform="translate(1719.34 397.667) rotate(-79.9524) scale(400.59 401.627)">
<stop offset="0.3" stop-color="#FDEE00"/>
<stop offset="0.36" stop-color="#F2EB06"/>
<stop offset="0.47" stop-color="#D5E416"/>
<stop offset="0.61" stop-color="#A6D831"/>
<stop offset="0.77" stop-color="#66C956"/>
<stop offset="0.96" stop-color="#14B585"/>
<stop offset="1" stop-color="#00B091"/>
</radialGradient>
</defs>
</svg>
